<svg id="Layer_1" data-name="Layer 1" xmlns="http://www.w3.org/2000/svg" xmlns:xlink="http://www.w3.org/1999/xlink" viewBox="0 0 393.88 348.44"><defs><style>.cls-1{fill:url(#linear-gradient);}.cls-2{fill:url(#linear-gradient-2);}.cls-3{fill:none;clip-rule:evenodd;}.cls-4{clip-path:url(#clip-path);}.cls-5{fill:url(#linear-gradient-3);}.cls-6{clip-path:url(#clip-path-2);}.cls-7{fill:url(#linear-gradient-4);}.cls-8{mask:url(#mask);}.cls-9{fill:#5e17a9;}.cls-13,.cls-14,.cls-9{fill-rule:evenodd;}.cls-10{clip-path:url(#clip-path-3);}.cls-11{fill:url(#linear-gradient-5);}.cls-12{mask:url(#mask-2);}.cls-13{fill:#e60040;}.cls-14{fill:#fff;}.cls-15{fill:url(#linear-gradient-6);}.cls-16{fill:url(#linear-gradient-7);}.cls-17{fill:url(#linear-gradient-8);}.cls-18{fill:url(#linear-gradient-9);}.cls-19{fill:url(#linear-gradient-10);}.cls-20{fill:url(#linear-gradient-11);}</style><linearGradient id="linear-gradient" x1="-1416.21" y1="1453.02" x2="-921.35" y2="1453.02" gradientTransform="translate(1256.39 -1222.41)" gradientUnits="userSpaceOnUse"><stop offset="0" stop-color="#fff"/><stop offset="1"/></linearGradient><linearGradient id="linear-gradient-2" x1="-1287.19" y1="1726.94" x2="-1093.01" y2="1320.54" gradientTransform="translate(1243.6 -1273.74)" xlink:href="#linear-gradient"/><clipPath id="clip-path" transform="translate(18.06 1.2)"><path class="cls-3" d="M345.51,19.29a47.41,47.41,0,0,1,3.35-4.44c5.57-6.63,11.75-10.38,19.67-13.61,6-2.44,7.29-1.46,6,4.57-1.71,8.28-4.43,15.12-10,21.76a49.19,49.19,0,0,1-3.89,4.14c2.32,4.07-.16,12.57-2.82,15.06.24-3.13-1.31-7.92-3.62-10.06l-5.43,3.71-.69-.56-.7-.56-7-5.64-.6-.48-.6-.49,3-6C339,24.33,336,24,332.19,25.63c2.8-4.61,8.13-6.44,13.32-6.34"/></clipPath><linearGradient id="linear-gradient-3" x1="343.13" y1="41.07" x2="27.57" y2="227.41" gradientUnits="userSpaceOnUse"><stop offset="0" stop-color="#fb4faf"/><stop offset="0.42" stop-color="#c835f8"/><stop offset="1" stop-color="#1a85f8"/></linearGradient><clipPath id="clip-path-2" transform="translate(18.06 1.2)"><path class="cls-3" d="M91.55,231.06c.46.66.93,1.33,1.44,2A114.26,114.26,0,0,0,285.6,110.77c28.52-26.84,41.74-45.61,52.51-66.17C281.88,97.82,110.17,218.28,30.45,201c-15-3.24-14.37-13.33-2.58-30.55-45.93,24.29-28.25,51.92,4,54.64C78.25,229,142,198.71,182.49,178.86a29.28,29.28,0,0,1-3.12,2.85c-10.2,9-44.42,37.09-87.82,49.35"/></clipPath><linearGradient id="linear-gradient-4" x1="362.27" y1="54.77" x2="46.16" y2="242.15" xlink:href="#linear-gradient-3"/><mask id="mask" x="109.61" y="181.54" width="202.06" height="100.56" maskUnits="userSpaceOnUse"><g transform="translate(18.06 1.2)"><rect class="cls-1" x="91.55" y="180.34" width="202.06" height="100.56"/></g></mask><clipPath id="clip-path-3" transform="translate(18.06 1.2)"><path class="cls-3" d="M266.87,87.46a114.29,114.29,0,0,0-197.49,97C130.65,166.94,215,123.34,266.87,87.46"/></clipPath><linearGradient id="linear-gradient-5" x1="80.7" y1="177.85" x2="310.9" y2="46.3" gradientUnits="userSpaceOnUse"><stop offset="0" stop-color="#fb4faf"/><stop offset="1" stop-color="#f9d92e"/></linearGradient><mask id="mask-2" x="85.56" y="59" width="95.19" height="126.61" maskUnits="userSpaceOnUse"><g transform="translate(18.06 1.2)"><rect class="cls-2" x="67.5" y="57.8" width="95.19" height="126.61"/></g></mask><linearGradient id="linear-gradient-6" x1="-1.88" y1="331.14" x2="373.49" y2="329.3" xlink:href="#linear-gradient-5"/><linearGradient id="linear-gradient-7" x1="-1.88" y1="331.27" x2="373.49" y2="329.43" xlink:href="#linear-gradient-5"/><linearGradient id="linear-gradient-8" x1="-1.88" y1="331.35" x2="373.49" y2="329.51" xlink:href="#linear-gradient-5"/><linearGradient id="linear-gradient-9" x1="-1.88" y1="331.74" x2="373.49" y2="329.9" xlink:href="#linear-gradient-5"/><linearGradient id="linear-gradient-10" x1="-1.88" y1="331.88" x2="373.49" y2="330.04" xlink:href="#linear-gradient-5"/><linearGradient id="linear-gradient-11" x1="-1.88" y1="332.05" x2="373.49" y2="330.22" xlink:href="#linear-gradient-5"/></defs><g class="cls-4"><rect class="cls-5" x="350.25" width="43.63" height="47.97"/></g><g class="cls-6"><rect class="cls-7" y="45.79" width="356.17" height="236.3"/></g><g class="cls-8"><path class="cls-9" d="M91.55,231.06c.46.66.93,1.33,1.44,2a114.27,114.27,0,0,0,200.62-28.2c-39.17,72.35-170.13,64.92-143.56,14.24,9.66-18.43,30.93-38.8,30.93-38.8h0c-.49.45-1,.9-1.61,1.37-10.2,9-44.42,37.09-87.82,49.35" transform="translate(18.06 1.2)"/></g><g class="cls-10"><rect class="cls-11" x="85.56" y="50.61" width="199.37" height="134.99"/></g><g class="cls-12"><path class="cls-13" d="M138.72,57.8A114.42,114.42,0,0,0,69.38,184.41c28-8,60.92-21.47,93.31-37.17C68.84,176.75,75.46,84,138.72,57.8" transform="translate(18.06 1.2)"/></g><polygon class="cls-14" points="131.52 107.51 134.5 113.6 140.72 116.7 134.63 119.67 131.52 125.89 128.55 119.8 122.33 116.7 128.42 113.73 131.52 107.51"/><polygon class="cls-14" points="280.31 181.27 283.29 187.36 289.51 190.46 283.42 193.43 280.31 199.66 277.34 193.56 271.12 190.46 277.21 187.49 280.31 181.27"/><polygon class="cls-14" points="201.99 227.73 204.06 231.98 208.41 234.15 204.15 236.23 201.99 240.57 199.91 236.32 195.56 234.15 199.82 232.07 201.99 227.73"/><polygon class="cls-14" points="253.44 227.72 254.97 230.84 258.16 232.43 255.03 233.96 253.44 237.14 251.92 234.02 248.73 232.43 251.85 230.91 253.44 227.72"/><polygon class="cls-14" points="229.98 172.67 231.5 175.79 234.69 177.38 231.57 178.91 229.98 182.09 228.46 178.97 225.27 177.38 228.39 175.86 229.98 172.67"/><polygon class="cls-14" points="181.63 72.64 183.15 75.76 186.34 77.35 183.22 78.88 181.63 82.07 180.1 78.94 176.91 77.35 180.04 75.83 181.63 72.64"/><polygon class="cls-14" points="190.63 105.38 192.71 109.64 197.05 111.81 192.8 113.88 190.63 118.23 188.56 113.97 184.21 111.81 188.46 109.73 190.63 105.38"/><path class="cls-15" d="M78,347.24v-5.79h24.85a5,5,0,0,0,3.58-1.19,4.13,4.13,0,0,0,1.25-3.14,4,4,0,0,0-1.25-3.24,5.44,5.44,0,0,0-3.58-1.05H87.58a12,12,0,0,1-4.22-.7,9.14,9.14,0,0,1-3.19-2,8.57,8.57,0,0,1-2-3,10.54,10.54,0,0,1,0-7.5,7.87,7.87,0,0,1,2-2.94,9.16,9.16,0,0,1,3.21-1.94,12.65,12.65,0,0,1,4.38-.71h23.8v5.79H87.67A4.23,4.23,0,0,0,84.54,321a4,4,0,0,0-1.07,3,3.86,3.86,0,0,0,1.12,3,4.23,4.23,0,0,0,3,1h15.16c3.39,0,6,.8,7.69,2.38s2.59,4,2.59,7.2a11.57,11.57,0,0,1-.63,3.88,8.24,8.24,0,0,1-1.9,3.07,8.53,8.53,0,0,1-3.19,2,12.73,12.73,0,0,1-4.53.73Z" transform="translate(18.06 1.2)"/><path class="cls-16" d="M128.07,338v-5.61h13.31a6.42,6.42,0,0,0,4.76-1.71,6.18,6.18,0,0,0,1.71-4.58,6.11,6.11,0,0,0-1.7-4.56,6.51,6.51,0,0,0-4.76-1.69H123.87v27.36h-5.79V314.09h23.3a14.45,14.45,0,0,1,5.13.85,10.7,10.7,0,0,1,3.81,2.37,10.19,10.19,0,0,1,2.37,3.71,15.14,15.14,0,0,1,0,9.83,11,11,0,0,1-2.37,3.81,10.8,10.8,0,0,1-3.81,2.48,14,14,0,0,1-5.13.89Z" transform="translate(18.06 1.2)"/><path class="cls-17" d="M187.39,347.24l-5-8.34H166.73l2.74-4.7h10.16l-7.38-12.4L157.2,347.24h-6.61l19.06-31.73a4.33,4.33,0,0,1,1.18-1.37,2.69,2.69,0,0,1,1.65-.5,2.55,2.55,0,0,1,1.61.5,4.57,4.57,0,0,1,1.17,1.37l19.1,31.73Z" transform="translate(18.06 1.2)"/><path class="cls-18" d="M208.63,347.24a15.74,15.74,0,0,1-11.51-4.86,16,16,0,0,1-3.37-5.35,18.21,18.21,0,0,1-1.21-6.7,17.59,17.59,0,0,1,1.21-6.66,14.69,14.69,0,0,1,3.37-5.13,15.15,15.15,0,0,1,5.11-3.28,17.14,17.14,0,0,1,6.4-1.17h18v5.79h-18a10.51,10.51,0,0,0-4.12.8,9.75,9.75,0,0,0-3.26,2.21,10.34,10.34,0,0,0-2.15,3.38,11.79,11.79,0,0,0-.77,4.33,12.06,12.06,0,0,0,.77,4.33,10.3,10.3,0,0,0,2.15,3.44,9.88,9.88,0,0,0,3.26,2.26,10.17,10.17,0,0,0,4.12.82h18v5.79Z" transform="translate(18.06 1.2)"/><path class="cls-19" d="M231.29,347.24V314.09h29.64v5.79H237.09v21.57H261v5.79Zm10-14.41V328h18.38v4.88Z" transform="translate(18.06 1.2)"/><path class="cls-20" d="M268.14,347.24a3.7,3.7,0,0,1-2.31-.75,2.62,2.62,0,0,1-1-2.21,3.49,3.49,0,0,1,1.19-2.46l22-22.21h-22.8v-5.52h29a3.66,3.66,0,0,1,2.28.76,2.58,2.58,0,0,1,1,2.21,3.49,3.49,0,0,1-1.19,2.46l-22,22.2h23.07v5.52Z" transform="translate(18.06 1.2)"/></svg>